<mxfile host="app.diagrams.net" modified="2020-08-12T08:39:00.562Z" agent="5.0 (X11)" etag="zEfwglIJAY3K0bYTlAbP" version="13.6.2" type="github">
  <diagram name="Page-1" id="55a83fd1-7818-8e21-69c5-c3457e3827bb">
    <mxGraphModel dx="1422" dy="748" grid="1" gridSize="10" guides="1" tooltips="1" connect="1" arrows="1" fold="1" page="1" pageScale="1" pageWidth="1100" pageHeight="850" background="#ffffff" math="0" shadow="0">
      <root>
        <mxCell id="0" />
        <mxCell id="1" parent="0" />
        <mxCell id="Y0KIF0XfiJrtpdxyvXsD-20" style="edgeStyle=orthogonalEdgeStyle;rounded=0;orthogonalLoop=1;jettySize=auto;html=1;entryX=0.7;entryY=-0.069;entryDx=0;entryDy=0;entryPerimeter=0;" edge="1" parent="1" source="Y0KIF0XfiJrtpdxyvXsD-1" target="Y0KIF0XfiJrtpdxyvXsD-8">
          <mxGeometry relative="1" as="geometry">
            <Array as="points">
              <mxPoint x="189" y="240" />
            </Array>
          </mxGeometry>
        </mxCell>
        <mxCell id="Y0KIF0XfiJrtpdxyvXsD-21" style="edgeStyle=orthogonalEdgeStyle;rounded=0;orthogonalLoop=1;jettySize=auto;html=1;entryX=0.5;entryY=0;entryDx=0;entryDy=0;entryPerimeter=0;" edge="1" parent="1" source="Y0KIF0XfiJrtpdxyvXsD-1" target="Y0KIF0XfiJrtpdxyvXsD-17">
          <mxGeometry relative="1" as="geometry" />
        </mxCell>
        <mxCell id="Y0KIF0XfiJrtpdxyvXsD-22" style="edgeStyle=orthogonalEdgeStyle;rounded=0;orthogonalLoop=1;jettySize=auto;html=1;entryX=0.5;entryY=0;entryDx=0;entryDy=0;entryPerimeter=0;" edge="1" parent="1" source="Y0KIF0XfiJrtpdxyvXsD-1" target="Y0KIF0XfiJrtpdxyvXsD-12">
          <mxGeometry relative="1" as="geometry">
            <Array as="points">
              <mxPoint x="375" y="380" />
              <mxPoint x="375" y="380" />
            </Array>
          </mxGeometry>
        </mxCell>
        <mxCell id="Y0KIF0XfiJrtpdxyvXsD-32" style="edgeStyle=orthogonalEdgeStyle;rounded=0;orthogonalLoop=1;jettySize=auto;html=1;exitX=1;exitY=0.5;exitDx=0;exitDy=0;exitPerimeter=0;entryX=0;entryY=0.5;entryDx=0;entryDy=0;entryPerimeter=0;" edge="1" parent="1" source="Y0KIF0XfiJrtpdxyvXsD-1" target="Y0KIF0XfiJrtpdxyvXsD-2">
          <mxGeometry relative="1" as="geometry" />
        </mxCell>
        <mxCell id="Y0KIF0XfiJrtpdxyvXsD-1" value="" style="points=[[0.015,0.015,0],[0.985,0.015,0],[0.985,0.985,0],[0.015,0.985,0],[0.25,0,0],[0.5,0,0],[0.75,0,0],[1,0.25,0],[1,0.5,0],[1,0.75,0],[0.75,1,0],[0.5,1,0],[0.25,1,0],[0,0.75,0],[0,0.5,0],[0,0.25,0]];verticalLabelPosition=bottom;html=1;verticalAlign=top;aspect=fixed;align=center;pointerEvents=1;shape=mxgraph.cisco19.rect;prIcon=l2_switch;fillColor=#FAFAFA;strokeColor=#005073;" vertex="1" parent="1">
          <mxGeometry x="350" y="240" width="70" height="70" as="geometry" />
        </mxCell>
        <mxCell id="Y0KIF0XfiJrtpdxyvXsD-23" style="edgeStyle=orthogonalEdgeStyle;rounded=0;orthogonalLoop=1;jettySize=auto;html=1;entryX=0.386;entryY=0.069;entryDx=0;entryDy=0;entryPerimeter=0;" edge="1" parent="1" source="Y0KIF0XfiJrtpdxyvXsD-2" target="Y0KIF0XfiJrtpdxyvXsD-16">
          <mxGeometry relative="1" as="geometry" />
        </mxCell>
        <mxCell id="Y0KIF0XfiJrtpdxyvXsD-24" style="edgeStyle=orthogonalEdgeStyle;rounded=0;orthogonalLoop=1;jettySize=auto;html=1;" edge="1" parent="1" source="Y0KIF0XfiJrtpdxyvXsD-2" target="Y0KIF0XfiJrtpdxyvXsD-15">
          <mxGeometry relative="1" as="geometry">
            <Array as="points">
              <mxPoint x="643" y="220" />
              <mxPoint x="955" y="220" />
            </Array>
          </mxGeometry>
        </mxCell>
        <mxCell id="Y0KIF0XfiJrtpdxyvXsD-25" style="edgeStyle=orthogonalEdgeStyle;rounded=0;orthogonalLoop=1;jettySize=auto;html=1;entryX=0.5;entryY=0;entryDx=0;entryDy=0;entryPerimeter=0;" edge="1" parent="1" source="Y0KIF0XfiJrtpdxyvXsD-2" target="Y0KIF0XfiJrtpdxyvXsD-14">
          <mxGeometry relative="1" as="geometry">
            <Array as="points">
              <mxPoint x="800" y="278" />
              <mxPoint x="800" y="620" />
            </Array>
          </mxGeometry>
        </mxCell>
        <mxCell id="Y0KIF0XfiJrtpdxyvXsD-2" value="" style="points=[[0.015,0.015,0],[0.985,0.015,0],[0.985,0.985,0],[0.015,0.985,0],[0.25,0,0],[0.5,0,0],[0.75,0,0],[1,0.25,0],[1,0.5,0],[1,0.75,0],[0.75,1,0],[0.5,1,0],[0.25,1,0],[0,0.75,0],[0,0.5,0],[0,0.25,0]];verticalLabelPosition=bottom;html=1;verticalAlign=top;aspect=fixed;align=center;pointerEvents=1;shape=mxgraph.cisco19.rect;prIcon=l2_switch;fillColor=#FAFAFA;strokeColor=#005073;" vertex="1" parent="1">
          <mxGeometry x="610" y="245" width="65" height="65" as="geometry" />
        </mxCell>
        <mxCell id="Y0KIF0XfiJrtpdxyvXsD-26" style="edgeStyle=orthogonalEdgeStyle;rounded=0;orthogonalLoop=1;jettySize=auto;html=1;" edge="1" parent="1" source="Y0KIF0XfiJrtpdxyvXsD-3" target="Y0KIF0XfiJrtpdxyvXsD-1">
          <mxGeometry relative="1" as="geometry" />
        </mxCell>
        <mxCell id="Y0KIF0XfiJrtpdxyvXsD-27" style="edgeStyle=orthogonalEdgeStyle;rounded=0;orthogonalLoop=1;jettySize=auto;html=1;" edge="1" parent="1" source="Y0KIF0XfiJrtpdxyvXsD-3" target="Y0KIF0XfiJrtpdxyvXsD-2">
          <mxGeometry relative="1" as="geometry">
            <Array as="points">
              <mxPoint x="560" y="278" />
            </Array>
          </mxGeometry>
        </mxCell>
        <mxCell id="Y0KIF0XfiJrtpdxyvXsD-28" style="edgeStyle=orthogonalEdgeStyle;rounded=0;orthogonalLoop=1;jettySize=auto;html=1;exitX=0.5;exitY=1;exitDx=0;exitDy=0;entryX=0.5;entryY=0;entryDx=0;entryDy=0;" edge="1" parent="1" source="Y0KIF0XfiJrtpdxyvXsD-3" target="Y0KIF0XfiJrtpdxyvXsD-4">
          <mxGeometry relative="1" as="geometry" />
        </mxCell>
        <mxCell id="Y0KIF0XfiJrtpdxyvXsD-3" value="" style="image;html=1;image=img/lib/clip_art/networking/Router_Icon_128x128.png" vertex="1" parent="1">
          <mxGeometry x="510" y="140" width="80" height="80" as="geometry" />
        </mxCell>
        <mxCell id="Y0KIF0XfiJrtpdxyvXsD-4" value="" style="image;html=1;image=img/lib/clip_art/networking/Wireless_Router_128x128.png" vertex="1" parent="1">
          <mxGeometry x="98" y="210" width="80" height="80" as="geometry" />
        </mxCell>
        <mxCell id="Y0KIF0XfiJrtpdxyvXsD-8" value="" style="shape=mxgraph.signs.tech.computer;html=1;fillColor=#000000;strokeColor=none;verticalLabelPosition=bottom;verticalAlign=top;align=center;" vertex="1" parent="1">
          <mxGeometry x="140" y="560" width="70" height="58" as="geometry" />
        </mxCell>
        <mxCell id="Y0KIF0XfiJrtpdxyvXsD-12" value="" style="shape=mxgraph.signs.tech.computer;html=1;fillColor=#000000;strokeColor=none;verticalLabelPosition=bottom;verticalAlign=top;align=center;" vertex="1" parent="1">
          <mxGeometry x="340" y="580" width="70" height="58" as="geometry" />
        </mxCell>
        <mxCell id="Y0KIF0XfiJrtpdxyvXsD-14" value="" style="shape=mxgraph.signs.tech.computer;html=1;fillColor=#000000;strokeColor=none;verticalLabelPosition=bottom;verticalAlign=top;align=center;" vertex="1" parent="1">
          <mxGeometry x="820" y="620" width="70" height="58" as="geometry" />
        </mxCell>
        <mxCell id="Y0KIF0XfiJrtpdxyvXsD-15" value="" style="shape=mxgraph.signs.tech.computer;html=1;fillColor=#000000;strokeColor=none;verticalLabelPosition=bottom;verticalAlign=top;align=center;" vertex="1" parent="1">
          <mxGeometry x="920" y="640" width="70" height="56" as="geometry" />
        </mxCell>
        <mxCell id="Y0KIF0XfiJrtpdxyvXsD-16" value="" style="shape=mxgraph.signs.tech.computer;html=1;fillColor=#000000;strokeColor=none;verticalLabelPosition=bottom;verticalAlign=top;align=center;" vertex="1" parent="1">
          <mxGeometry x="660" y="630" width="70" height="58" as="geometry" />
        </mxCell>
        <mxCell id="Y0KIF0XfiJrtpdxyvXsD-17" value="" style="shape=mxgraph.signs.tech.computer;html=1;fillColor=#000000;strokeColor=none;verticalLabelPosition=bottom;verticalAlign=top;align=center;" vertex="1" parent="1">
          <mxGeometry x="230" y="610" width="80" height="80" as="geometry" />
        </mxCell>
        <mxCell id="Y0KIF0XfiJrtpdxyvXsD-29" style="edgeStyle=orthogonalEdgeStyle;rounded=0;orthogonalLoop=1;jettySize=auto;html=1;" edge="1" parent="1" source="Y0KIF0XfiJrtpdxyvXsD-19" target="Y0KIF0XfiJrtpdxyvXsD-3">
          <mxGeometry relative="1" as="geometry" />
        </mxCell>
        <mxCell id="Y0KIF0XfiJrtpdxyvXsD-19" value="" style="aspect=fixed;perimeter=ellipsePerimeter;html=1;align=center;shadow=0;dashed=0;spacingTop=3;image;image=img/lib/active_directory/internet_cloud.svg;" vertex="1" parent="1">
          <mxGeometry x="760" y="140" width="79.37" height="50" as="geometry" />
        </mxCell>
        <mxCell id="Y0KIF0XfiJrtpdxyvXsD-30" value="" style="html=1;verticalLabelPosition=bottom;align=center;labelBackgroundColor=#ffffff;verticalAlign=top;strokeWidth=2;strokeColor=#0080F0;shadow=0;dashed=0;shape=mxgraph.ios7.icons.smartphone;" vertex="1" parent="1">
          <mxGeometry x="80" y="420" width="18" height="30" as="geometry" />
        </mxCell>
      </root>
    </mxGraphModel>
  </diagram>
</mxfile>
